# xmcd
#
# Track frame offsets:
#	150
#	15222
#	32215
#	51645
#	67792
#	81572
#	100372
#	113872
#	129370
#	145360
#	165515
#	183722
#	208297
#	223507
#
# Disc length: 3161 seconds
#
# Revision: 2
# Processed by: cddbd v1.4PL0 Copyright (c) Steve Scherf et al.
# Submitted via: audiograbber 1.81.03
#
DISCID=cf0c570e
DTITLE=Flemming Bamse Jørgensen - Always On My Mind
DYEAR=2001
DGENRE=Pop
TTITLE0=Brown Eyed Girl
TTITLE1=To Love Somebody
TTITLE2=Always On My Mind
TTITLE3=Woman
TTITLE4=My Girl
TTITLE5=Welcome
TTITLE6=If Not For You
TTITLE7=A Wedding Song
TTITLE8=Catch The Wind
TTITLE9=A Salty Dog
TTITLE10=Suzanne
TTITLE11=Like A Rock
TTITLE12=Wonderful World
TTITLE13=Crazy
EXTD=\nRecord number: Recart Music RecArt 5355702\n
EXTT0=
EXTT1=
EXTT2=
EXTT3=
EXTT4=
EXTT5=
EXTT6=
EXTT7=
EXTT8=
EXTT9=
EXTT10=
EXTT11=
EXTT12=
EXTT13=
PLAYORDER=
